<?xml version="1.0" encoding="UTF-8" standalone="no"?>
<svg
   xmlns:dc="http://purl.org/dc/elements/1.1/"
   xmlns:cc="http://creativecommons.org/ns#"
   xmlns:rdf="http://www.w3.org/1999/02/22-rdf-syntax-ns#"
   xmlns:svg="http://www.w3.org/2000/svg"
   xmlns="http://www.w3.org/2000/svg"
   xmlns:sodipodi="http://sodipodi.sourceforge.net/DTD/sodipodi-0.dtd"
   xmlns:inkscape="http://www.inkscape.org/namespaces/inkscape"
   version="1.1"
   viewBox="0 0 816 816"
   width="816.0pt"
   height="816.0pt"
   id="svg62"
   sodipodi:docname="trigon_ghartok.svg"
   inkscape:version="1.0.2 (e86c870, 2021-01-15)">
  <metadata
     id="metadata68">
    <rdf:RDF>
      <cc:Work
         rdf:about="">
        <dc:format>image/svg+xml</dc:format>
        <dc:type
           rdf:resource="http://purl.org/dc/dcmitype/StillImage" />
        <dc:title />
      </cc:Work>
    </rdf:RDF>
  </metadata>
  <defs
     id="defs66" />
  <sodipodi:namedview
     pagecolor="#ffffff"
     bordercolor="#666666"
     borderopacity="1"
     objecttolerance="10"
     gridtolerance="10"
     guidetolerance="10"
     inkscape:pageopacity="0"
     inkscape:pageshadow="2"
     inkscape:window-width="1024"
     inkscape:window-height="715"
     id="namedview64"
     showgrid="false"
     inkscape:pagecheckerboard="true"
     showborder="false"
     inkscape:zoom="0.88786765"
     inkscape:cx="637.56061"
     inkscape:cy="267.27339"
     inkscape:window-x="-8"
     inkscape:window-y="-8"
     inkscape:window-maximized="1"
     inkscape:current-layer="svg62"
     inkscape:document-rotation="0" />
  <path
     id="path42"
     style="stroke-width:1.33333"
     d="m 134.51953,0 1.01367,1.8925781 c 3.34667,7.08 5.81261,14.6409379 8.58594,21.9609379 C 272.90581,363.89352 401.79935,703.98667 530.66602,1044 c 5.25333,14.7067 11.58682,29.0667 16.16015,44 h 0.57422 C 568.49372,1030.5867 589.89305,974.2801 611.37305,916.77344 652.22638,807.8001 692.8525,698.77284 733.8125,589.82617 768.38583,496.95951 803.25273,404.22612 838.05273,311.43945 871.8794,220.11945 906.43945,129.06583 940.43945,37.8125 945.13279,25.159167 949.41409,12.226667 955.10742,0 Z M 829.5957,21.736328 c 1.35938,0 4.49349,0.377605 9.40235,1.132813 4.98437,0.679687 8.72265,1.019531 11.21484,1.019531 h 18.46484 c 4.15366,0 6.6836,0.679687 7.58985,2.039062 2.03906,2.567709 3.70052,5.513021 4.98437,8.835938 1.35938,3.322917 2.03907,6.381511 2.03907,9.175781 0,3.247397 -0.49088,4.871094 -1.47266,4.871094 -1.8125,0 -2.90756,-0.755208 -3.28516,-2.265625 -0.60417,-3.625 -3.66276,-7.28776 -9.17578,-10.988281 -5.4375,-3.776042 -11.0638,-5.664063 -16.8789,-5.664063 -0.75521,0 -1.2461,0.264323 -1.47266,0.792969 -0.22656,0.528645 -0.0377,0.98177 0.56641,1.359375 4.15364,2.341146 8.194,7.627604 12.12109,15.859375 3.92708,8.15625 5.89062,15.330729 5.89062,21.523437 v 2.039063 c 0,2.567708 -0.49088,3.851562 -1.47265,3.851562 -0.90625,0 -1.73698,-0.94401 -2.49219,-2.832031 -1.20834,-2.71875 -3.88932,-5.399739 -8.04297,-8.042969 -4.15364,-2.71875 -8.11848,-4.606771 -11.89453,-5.664062 -0.15104,0 -0.30208,0.113281 -0.45312,0.339844 -0.15104,0.226562 -0.22657,0.453124 -0.22657,0.679687 0,0.226562 0.0755,0.415365 0.22657,0.566406 6.94792,6.947918 12.00781,13.820313 15.17968,20.617188 3.2474,6.796875 4.8711,15.066402 4.8711,24.808598 0,5.73958 -2.0013,11.32812 -6.00391,16.76562 -3.92708,5.51302 -8.19401,9.77995 -12.80078,12.80078 -1.73698,1.05729 -3.17188,1.58594 -4.30469,1.58594 -0.60417,0 -1.09505,-0.26433 -1.47265,-0.79297 -0.3776,-0.45313 -0.52865,-1.01953 -0.45313,-1.69922 0.0756,-1.28385 0.86852,-2.34114 2.37891,-3.17187 3.77604,-2.19011 7.0612,-5.4375 9.85547,-9.74219 2.86979,-4.22917 4.30468,-8.6849 4.30468,-13.36719 0,-8.15625 -1.58593,-15.708331 -4.75781,-22.656248 -3.17187,-6.947917 -7.40104,-12.951823 -12.6875,-18.011719 -5.21093,-5.135416 -11.74349,-10.157552 -19.59766,-15.066406 -0.15104,-0.07552 -0.5664,-0.302082 -1.24609,-0.679688 -0.67969,-0.453125 -1.13281,-0.792969 -1.35937,-1.019531 -0.22656,-0.226563 -0.49088,-0.528645 -0.79297,-0.90625 -0.30208,-0.453124 -0.45313,-0.94401 -0.45313,-1.472656 0,-1.585938 0.60417,-2.378906 1.8125,-2.378906 5.66406,0 10.72396,0.377603 15.17969,1.132812 4.45572,0.679687 7.77864,1.397136 9.96875,2.152344 2.19011,0.755209 5.39974,2.001302 9.62891,3.738281 0.67968,0.302084 1.13281,0.188802 1.35937,-0.339844 0.22656,-0.528646 0.15104,-1.170573 -0.22656,-1.925781 -3.54948,-7.174479 -11.59245,-14.386719 -24.12891,-21.636719 -0.75521,-0.453125 -1.43489,-1.095052 -2.03906,-1.925781 -0.52864,-0.906251 -0.79297,-1.661459 -0.79297,-2.265625 0,-2.114583 0.98178,-3.171875 2.94531,-3.171875 z m -555.78906,0.05273 c 2.34115,0 3.51172,0.981772 3.51172,2.945313 0,2.190105 -2.15234,4.078125 -6.45703,5.664063 -5.0599,1.888021 -8.98697,4.871094 -11.78125,8.949218 -2.79427,4.002604 -4.19141,8.798178 -4.19141,14.386719 0,0.830729 0.11334,2.454427 0.33985,4.871094 0.22657,2.416666 0.33984,4.040365 0.33984,4.871093 0,1.510419 -0.22655,2.265626 -0.67969,2.265626 -2.26562,0 -4.64453,-1.888022 -7.13672,-5.664063 -2.49218,-3.776041 -3.73828,-7.514322 -3.73828,-11.214844 0,-2.567708 0.60417,-5.173177 1.8125,-7.816406 1.28386,-2.718749 2.52995,-4.908853 3.73828,-6.570313 1.20834,-1.736978 1.8125,-2.756509 1.8125,-3.058593 0,-1.359375 -1.20833,-2.039063 -3.625,-2.039063 h -10.64843 c -3.2474,0 -5.96616,3.020834 -8.15625,9.0625 -2.11459,5.966146 -3.17188,14.651041 -3.17188,26.054688 0,16.463541 3.2474,32.436202 9.74219,47.917966 0.45313,1.05729 1.32161,2.49219 2.60547,4.30469 1.35937,1.88802 2.49218,2.83203 3.39843,2.83203 0.3776,0 0.94401,-0.56641 1.69922,-1.69922 0.83074,-1.13281 1.96355,-2.79427 3.39844,-4.98437 1.43489,-2.26563 2.64323,-4.07813 3.625,-5.4375 2.03907,-3.2474 3.54948,-5.09766 4.53125,-5.55078 0.30208,-0.0755 0.5664,-0.11329 0.79297,-0.11329 0.45312,0 0.90624,0.33985 1.35937,1.01954 0.52864,0.67968 0.79297,1.28385 0.79297,1.8125 0,0.22656 -0.0377,0.3776 -0.11328,0.45312 -1.96353,3.77604 -3.92708,8.60938 -5.89062,14.5 -1.96354,5.89063 -3.20963,10.76172 -3.73828,14.61328 -0.0756,0.75522 -0.37765,1.32161 -0.90625,1.69922 -0.52866,0.3776 -1.05729,0.56641 -1.58594,0.56641 -0.52864,0 -2.15234,-1.58594 -4.8711,-4.75781 -2.64322,-3.17188 -4.53124,-5.70183 -5.66406,-7.58985 -1.05729,-1.66146 -3.51172,-5.32422 -7.36328,-10.98828 -3.77604,-5.73958 -6.75911,-10.42187 -8.94922,-14.046875 -2.1901,-3.625 -4.34246,-8.269531 -6.45703,-13.933594 -2.03907,-5.664062 -3.05859,-10.875 -3.05859,-15.632812 0,-1.661459 0.11333,-3.322918 0.33984,-4.984375 0.22657,-1.661459 0.41537,-3.096354 0.56641,-4.304688 0.22656,-1.208333 0.67968,-2.680988 1.35937,-4.417968 0.6797,-1.8125 1.17058,-3.134115 1.47266,-3.964844 0.30209,-0.83073 0.94401,-2.227866 1.92578,-4.191406 1.05729,-2.039063 1.73697,-3.322916 2.03906,-3.851563 0.3776,-0.604167 1.2461,-2.076823 2.60547,-4.417969 1.35937,-2.416666 2.19009,-3.889323 2.49219,-4.417968 0.3776,-0.604167 0.5664,-1.132814 0.5664,-1.585938 0,-2.039063 -3.92707,-3.360677 -11.78125,-3.964844 -3.39844,-0.302084 -5.09765,-1.397136 -5.09765,-3.285156 0,-1.888021 2.41666,-2.832031 7.25,-2.832031 h 33.64453 c 0.67969,0 2.83203,0.151041 6.45703,0.453125 3.70052,0.226562 5.96614,0.339844 6.79688,0.339844 0.30208,0 2.64322,-0.377604 7.02343,-1.132813 4.3802,-0.755208 6.72135,-1.132813 7.02344,-1.132813 z m 233.50781,30.8125 28.85938,7.757813 -51.85352,218.667965 13.86133,3.59961 L 550.5,64.066406 578.46094,71.880859 528.1582,291.19727 541.42969,294.8457 593.14648,75.746094 624.4707,84.494141 C 608.09737,159.29414 576.9375,304.67188 576.9375,304.67188 l 12.6875,3.39453 47.9375,-219.276378 27.54559,7.485359 -31.19598,225.417969 -58.39258,107.16016 -166.54687,-54.6543 z m 173.19141,152.119138 26.04102,4.70508 -15.95899,319.00195 -129.94727,113.45313 -7.77148,-90.52734 72.24805,-83.16797 z m -274.77344,187.53321 158.52149,56.79882 -31.36133,57.20118 -121.93164,-43.9336 z m 6.7207,89.41211 112.9336,40.05468 -9.07422,15.69727 13.00781,106.86133 -109.16992,-60.36524 z m 112.74415,372.6621 h 41.57421 c 3.92709,10e-6 5.89063,0.83073 5.89063,2.49219 0,0.75521 -0.33984,1.47266 -1.01953,2.15235 -0.67969,0.60417 -1.35938,0.98177 -2.03906,1.13281 -1.28385,0.15104 -2.45443,0.52864 -3.51172,1.13281 -1.0573,0.52865 -1.58594,1.17057 -1.58594,1.92578 0,0.15104 0.15104,0.52865 0.45312,1.13282 5.36198,8.45832 9.21355,16.04818 11.55469,22.76953 2.41667,6.64584 3.625,14.53776 3.625,23.67578 0,5.66406 -0.3776,10.79947 -1.13281,15.40625 -0.67969,4.53124 -1.54818,8.34505 -2.60547,11.4414 -0.98177,3.09636 -2.49218,6.23047 -4.53125,9.40235 -2.03906,3.17187 -3.88932,5.66406 -5.55078,7.47656 -1.58594,1.88803 -3.85156,4.38022 -6.79688,7.47656 -1.88801,1.88803 -3.51171,2.83203 -4.87109,2.83203 -0.52865,0 -0.98177,-0.26432 -1.35937,-0.79296 -0.37761,-0.45313 -0.56641,-0.94401 -0.56641,-1.47266 0,-1.13282 0.5664,-2.26563 1.69922,-3.39844 5.89062,-5.73958 10.04427,-11.29036 12.46094,-16.65234 2.49218,-5.4375 3.73828,-13.02734 3.73828,-22.76953 0,-5.36198 -0.64194,-11.10156 -1.92578,-17.21875 -1.20834,-6.19271 -3.51173,-12.91407 -6.91016,-20.16407 -3.39844,-7.32552 -7.6276,-13.36718 -12.6875,-18.125 -1.35937,-1.20833 -2.68099,-1.8125 -3.96484,-1.8125 -1.66146,0 -2.79427,0.64193 -3.39844,1.92579 -0.83073,1.73697 -2.41667,4.83333 -4.75781,9.28906 -2.26562,4.38021 -3.81381,7.47656 -4.64454,9.28906 -0.7552,1.73698 -1.77473,4.34245 -3.05859,7.81641 -1.28386,3.39844 -2.15235,6.64584 -2.60547,9.74218 -0.45313,3.02084 -0.67969,6.34375 -0.67969,9.96875 0,21.14583 6.11718,39.00651 18.35157,53.58204 0.83073,0.98176 1.24609,1.69921 1.24609,2.15234 0,0.83073 -0.90624,1.24609 -2.71875,1.24609 -1.58594,0 -2.79427,-0.41536 -3.625,-1.24609 -9.59115,-8.98698 -16.35027,-17.48307 -20.27734,-25.48828 -3.85157,-8.08073 -5.77735,-18.23829 -5.77735,-30.47266 0,-5.51302 1.4349,-12.64974 4.30469,-21.41016 2.94532,-8.83593 6.23047,-16.38801 9.85547,-22.65624 0.67969,-1.51042 1.01953,-2.4922 1.01953,-2.94532 0,-1.58594 -1.8125,-2.52994 -5.4375,-2.83203 -3.47395,-0.22656 -5.21094,-1.28386 -5.21094,-3.17187 0,-1.88803 2.49219,-2.83204 7.47657,-2.83204 z"
     transform="scale(0.75)"
     sodipodi:nodetypes="ccccccccccccscssccssccssccssscccssscsccsccccsscccscsscscscccssssccscssssccssscsccsccccscscscsscccscscccsccccscssscsssccccccccccccccccccccccccccccccccccccssscccsccsccsccscsccscccscccccscssccsccscss" />
  <text
     xml:space="preserve"
     style="font-size:11px;line-height:1.25;font-family:sans-serif;word-spacing:0px;stroke-width:0.75;fill:#ffffff;"
     x="250.86919"
     y="37.03307"
     id="text83"><tspan
       sodipodi:role="line"
       id="tspan81"
       x="250.86919"
       y="37.03307"
       style="stroke-width:0.75;fill:#ffffff;" /></text>
  <text
     xml:space="preserve"
     style="font-size:110px;line-height:1.25;font-family:Daedric;-inkscape-font-specification:Daedric;word-spacing:0px;stroke-width:0.75;fill:#ffffff;"
     x="210.84958"
     y="100.04903"
     id="text27"><tspan
       sodipodi:role="line"
       id="tspan25"
       x="210.84958"
       y="100.04903"
       style="stroke-width:0.75;fill:#ffffff;" /></text>
</svg>
